<?xml version="1.0" encoding="UTF-8" standalone="no"?>
<svg
   version="1.0"
   width="537.09998pt"
   height="535.22308pt"
   viewBox="0 0 537.09998 535.22308"
   preserveAspectRatio="xMidYMid"
   id="svg12"
   sodipodi:docname="LinkedIn.svg"
   inkscape:version="1.2.2 (732a01da63, 2022-12-09)"
   inkscape:export-filename="LinkedIn.png"
   inkscape:export-xdpi="96"
   inkscape:export-ydpi="96"
   xmlns:inkscape="http://www.inkscape.org/namespaces/inkscape"
   xmlns:sodipodi="http://sodipodi.sourceforge.net/DTD/sodipodi-0.dtd"
   xmlns="http://www.w3.org/2000/svg"
   xmlns:svg="http://www.w3.org/2000/svg">
  <defs
     id="defs16" />
  <sodipodi:namedview
     id="namedview14"
     pagecolor="#505050"
     bordercolor="#ffffff"
     borderopacity="1"
     inkscape:showpageshadow="0"
     inkscape:pageopacity="0"
     inkscape:pagecheckerboard="1"
     inkscape:deskcolor="#505050"
     inkscape:document-units="pt"
     showgrid="false"
     inkscape:zoom="1.1166667"
     inkscape:cx="381.9403"
     inkscape:cy="307.61194"
     inkscape:window-width="1920"
     inkscape:window-height="991"
     inkscape:window-x="-9"
     inkscape:window-y="-9"
     inkscape:window-maximized="1"
     inkscape:current-layer="g10" />
  <metadata
     id="metadata2">
Created by potrace 1.16, written by Peter Selinger 2001-2019
</metadata>
  <g
     transform="matrix(0.1,0,0,-0.1,0.05,539.72307)"
     fill="#000000"
     stroke="none"
     id="g10">
    <path
       d="M 283,5386 C 147,5343 36,5219 10,5079 -4,5009 -4,432 10,361 33,240 123,126 237,72 l 58,-27 h 2390 2390 l 58,27 c 114,54 204,168 227,289 14,72 14,4648 0,4720 -23,120 -113,233 -227,287 l -58,27 -2375,2 c -1944,1 -2383,-1 -2417,-11 z m 1109,-778 c 94,-47 176,-130 221,-225 30,-64 32,-74 32,-184 0,-113 -1,-116 -38,-191 -202,-410 -791,-317 -857,135 -24,165 69,357 216,443 90,53 139,65 250,62 93,-3 107,-6 176,-40 z M 3776,3439 c 446,-49 681,-286 759,-764 27,-162 35,-472 28,-1162 l -6,-673 h -388 -388 l -3,768 c -4,750 -4,769 -25,844 -42,147 -101,226 -206,274 -57,27 -71,29 -182,29 -139,0 -205,-16 -281,-68 -91,-62 -143,-153 -181,-312 -14,-61 -17,-165 -20,-802 l -4,-733 h -390 -389 v 1270 1270 h 375 375 v -170 c 0,-181 7,-202 43,-141 36,61 110,142 180,197 197,154 409,206 703,173 z M 1590,2110 V 840 H 1200 810 v 1270 1270 h 390 390 z"
       id="path4"
       style="fill:#ffffff" />
  </g>
</svg>
