<?xml version="1.0" encoding="UTF-8" standalone="no"?>
<svg
   version="1.0"
   width="14081.988pt"
   height="2240.8127pt"
   viewBox="0 0 14081.988 2240.8127"
   preserveAspectRatio="xMidYMid"
   id="svg614"
   sodipodi:docname="logo_branco_ajustado.svg"
   inkscape:version="1.2.2 (732a01da63, 2022-12-09)"
   xmlns:inkscape="http://www.inkscape.org/namespaces/inkscape"
   xmlns:sodipodi="http://sodipodi.sourceforge.net/DTD/sodipodi-0.dtd"
   xmlns="http://www.w3.org/2000/svg"
   xmlns:svg="http://www.w3.org/2000/svg">
  <defs
     id="defs618" />
  <sodipodi:namedview
     id="namedview616"
     pagecolor="#ffffff"
     bordercolor="#000000"
     borderopacity="0.25"
     inkscape:showpageshadow="2"
     inkscape:pageopacity="0.0"
     inkscape:pagecheckerboard="0"
     inkscape:deskcolor="#d1d1d1"
     inkscape:document-units="pt"
     showgrid="false"
     inkscape:zoom="0.029655612"
     inkscape:cx="8514.4087"
     inkscape:cy="-1281.3764"
     inkscape:window-width="1920"
     inkscape:window-height="991"
     inkscape:window-x="-9"
     inkscape:window-y="-9"
     inkscape:window-maximized="1"
     inkscape:current-layer="svg614" />
  <metadata
     id="metadata582">
Created by potrace 1.16, written by Peter Selinger 2001-2019
</metadata>
  <g
     transform="matrix(0.1,0,0,-0.1,-2726.9872,10913.813)"
     fill="#000000"
     stroke="none"
     id="g612"
     style="fill:#ffffff;fill-opacity:1">
    <path
       d="m 30400,109134 c -19,-2 -82,-9 -140,-15 -1082,-113 -2065,-769 -2582,-1724 -88,-163 -185,-381 -225,-505 -105,-327 -142,-498 -173,-805 -14,-129 -13,-497 0,-623 75,-686 331,-1293 768,-1819 l 85,-103 h 2493 2492 l 54,63 c 339,391 587,863 711,1352 72,285 94,436 104,725 24,734 -192,1444 -628,2062 -38,53 -74,102 -81,110 -7,7 -29,33 -49,58 -323,399 -776,743 -1244,945 -325,140 -582,210 -975,265 -76,11 -546,22 -610,14 z"
       id="path584"
       style="fill:#ffffff;fill-opacity:1" />
    <path
       d="m 40440,109133 c -310,-21 -588,-66 -869,-139 -171,-44 -439,-133 -526,-174 -11,-5 -55,-23 -97,-39 -42,-17 -148,-66 -235,-110 -319,-159 -634,-367 -903,-594 -115,-97 -401,-379 -470,-462 -27,-33 -61,-73 -75,-90 -52,-60 -61,-71 -121,-150 -457,-605 -749,-1293 -864,-2035 -53,-341 -50,76 -50,-7325 0,-4271 -4,-6896 -10,-6973 -42,-534 -266,-1020 -649,-1403 -218,-218 -439,-369 -706,-483 -440,-188 -931,-231 -1390,-120 -191,46 -436,140 -555,213 -28,17 -53,31 -56,31 -7,0 -207,135 -238,160 -327,272 -510,502 -670,841 -117,247 -206,626 -206,881 v 48 h 559 559 l 6,48 c 3,26 15,139 26,252 36,381 89,914 100,1005 5,50 23,230 40,400 16,171 34,351 40,400 5,50 23,230 40,400 16,171 34,351 40,400 5,50 23,230 40,400 16,171 34,351 40,400 5,50 23,230 40,400 16,171 34,351 40,400 5,50 23,230 40,400 16,171 34,351 40,400 5,50 23,230 40,400 16,171 34,351 40,400 5,50 23,230 40,400 16,171 34,351 40,400 5,50 23,230 40,400 16,171 34,351 40,400 5,50 23,230 40,400 16,171 34,351 40,400 5,50 23,230 40,400 16,171 34,351 40,400 5,50 23,230 40,400 16,171 34,351 40,400 5,50 23,230 40,400 26,274 48,486 66,653 l 5,52 h -3360 -3361 l 1,-37 c 0,-21 251,-2542 557,-5603 l 557,-5565 560,-5 560,-5 2,-100 c 32,-1461 784,-2817 2018,-3637 348,-232 786,-435 1190,-553 891,-261 1823,-244 2700,49 378,127 698,283 1030,501 124,81 341,237 355,254 3,4 32,29 65,56 113,94 140,120 300,280 420,421 735,891 964,1437 148,355 262,781 305,1148 8,69 18,143 22,165 4,22 10,3197 13,7055 6,6713 7,7020 25,7120 59,344 174,643 349,906 140,210 270,350 502,543 94,78 321,213 465,276 291,129 569,187 895,188 306,1 552,-45 830,-155 337,-133 683,-386 901,-660 33,-40 62,-75 65,-78 3,-3 29,-41 59,-84 220,-329 339,-659 380,-1056 6,-61 10,-3315 10,-9112 v -9018 h 1120 1120 v 9093 c 0,8188 -2,9109 -16,9253 -40,407 -142,842 -281,1199 -296,758 -767,1393 -1424,1918 -118,94 -368,263 -509,344 -697,401 -1473,607 -2260,601 -118,-1 -235,-3 -260,-5 z m -8933,-8967 c 2,-2 -1,-50 -7,-107 -6,-57 -20,-194 -31,-304 -11,-110 -28,-288 -39,-395 -11,-107 -29,-285 -40,-395 -11,-110 -29,-290 -40,-400 -11,-110 -29,-290 -40,-400 -11,-110 -29,-292 -40,-405 -26,-261 -55,-552 -80,-800 -11,-107 -29,-286 -40,-397 -11,-112 -29,-294 -40,-405 -26,-258 -55,-549 -80,-800 -11,-109 -29,-288 -40,-398 -11,-110 -29,-290 -40,-400 -11,-110 -29,-291 -40,-402 -11,-112 -30,-295 -41,-408 -11,-113 -23,-225 -27,-250 l -7,-45 -201,-3 c -156,-2 -203,0 -211,10 -5,7 -15,69 -22,138 -27,289 -119,1212 -131,1320 -6,52 -24,232 -40,400 -16,168 -34,348 -40,400 -6,52 -24,232 -40,400 -16,168 -34,348 -40,400 -6,52 -24,232 -40,400 -16,168 -34,348 -40,400 -6,52 -24,232 -40,400 -16,168 -34,348 -40,400 -6,52 -24,232 -40,400 -16,168 -34,348 -40,400 -6,52 -24,232 -40,400 -16,168 -35,350 -40,405 -24,221 -46,446 -44,448 4,4 1757,-3 1761,-7 z"
       id="path586"
       style="fill:#ffffff;fill-opacity:1" />
    <path
       d="m 163137,106947 c -225,-246 -233,-254 -491,-522 -251,-261 -1447,-1459 -1716,-1720 -260,-251 -408,-393 -585,-559 -277,-260 -306,-288 -303,-297 2,-4 21,-27 43,-51 35,-37 103,-115 196,-223 14,-16 68,-77 119,-135 97,-111 106,-121 210,-240 36,-41 67,-77 70,-80 3,-3 32,-36 64,-75 33,-38 64,-75 70,-80 6,-6 40,-44 76,-85 36,-41 70,-80 75,-86 6,-6 31,-35 55,-63 24,-28 49,-51 56,-51 6,0 38,19 70,43 33,23 91,64 129,90 39,27 93,65 121,85 69,50 270,193 298,212 12,8 78,56 146,105 68,50 134,97 147,105 239,160 1051,763 1627,1208 80,61 150,112 155,112 6,0 76,-51 157,-112 451,-347 842,-642 1043,-788 57,-41 150,-109 207,-150 57,-41 138,-100 181,-130 43,-30 83,-58 88,-63 15,-12 507,-363 704,-502 94,-66 200,-141 237,-167 37,-27 72,-48 79,-48 6,0 32,24 56,53 24,28 58,68 75,87 42,47 116,131 189,215 65,74 139,159 189,215 17,19 60,68 94,108 34,40 75,87 91,105 15,18 68,77 117,133 239,270 233,262 216,273 -23,15 -423,393 -852,806 -187,181 -1524,1517 -1700,1700 -136,141 -354,372 -574,608 l -119,127 -481,-1 -481,-1 z"
       id="path588"
       style="fill:#ffffff;fill-opacity:1" />
    <path
       d="m 104410,105923 c -14,-2 -239,-21 -500,-43 -261,-22 -551,-47 -645,-55 -310,-27 -1239,-105 -1327,-112 l -88,-6 v -6849 -6848 l 1300,2 1301,3 -1,1530 c 0,842 3,1558 6,1592 7,61 7,62 102,165 199,214 319,345 382,413 387,419 417,451 423,445 2,-3 53,-79 112,-170 305,-468 801,-1186 995,-1442 19,-25 42,-57 52,-69 38,-56 270,-366 377,-504 503,-656 937,-1158 1434,-1660 211,-213 584,-566 607,-573 5,-2 31,16 57,40 53,49 138,127 287,263 55,50 104,95 110,100 6,6 54,48 106,95 52,47 97,87 100,90 3,3 57,52 120,110 63,58 117,107 120,110 3,3 48,43 100,90 52,47 100,90 106,95 6,6 55,51 110,100 54,50 128,117 164,150 36,33 147,134 248,225 100,90 182,167 182,170 0,4 -66,69 -147,146 -157,148 -694,683 -853,849 -158,167 -261,276 -350,374 -47,51 -98,108 -115,126 -40,44 -84,92 -185,205 -47,52 -87,97 -90,100 -25,22 -551,637 -639,745 -9,11 -43,54 -76,95 -33,41 -62,77 -65,80 -10,9 -154,192 -305,385 -310,398 -570,757 -869,1199 -77,113 -85,130 -73,145 20,24 340,384 352,397 5,6 39,44 75,84 162,184 643,723 650,730 3,3 39,43 80,90 42,47 89,100 105,119 17,18 42,46 56,62 14,15 52,58 85,95 32,38 99,113 149,169 49,55 103,115 120,134 16,19 35,39 40,45 6,6 114,128 240,271 127,143 257,289 290,325 33,36 74,81 90,100 27,31 327,368 409,460 246,274 676,761 676,765 0,3 -652,5 -1449,5 h -1449 l -98,-117 c -54,-65 -110,-131 -125,-148 -14,-16 -68,-79 -120,-140 -146,-172 -263,-309 -276,-323 -7,-7 -29,-34 -50,-60 -21,-26 -40,-49 -43,-52 -3,-3 -41,-48 -85,-100 -44,-52 -82,-97 -85,-100 -6,-5 -150,-174 -438,-514 -85,-100 -173,-203 -196,-231 -169,-198 -358,-420 -400,-470 -28,-33 -53,-62 -56,-65 -3,-3 -80,-93 -170,-200 -133,-158 -450,-530 -614,-721 -17,-20 -87,-102 -155,-183 -69,-80 -128,-146 -133,-146 -4,0 -8,1756 -8,3902 0,2146 -3,3905 -8,3908 -4,3 -18,4 -32,3 z"
       id="path590"
       style="fill:#ffffff;fill-opacity:1" />
    <path
       d="m 152150,105904 c -360,-32 -1870,-161 -2175,-185 -71,-6 -136,-12 -142,-14 -10,-4 -13,-1382 -13,-6850 v -6845 l 1303,2 1302,3 5,1591 5,1592 100,108 c 80,88 231,249 255,274 3,3 52,57 110,120 58,63 114,124 125,135 11,12 83,90 159,173 77,84 143,152 147,152 3,0 44,-57 89,-127 187,-288 475,-715 618,-918 218,-308 285,-402 401,-560 290,-396 587,-783 848,-1105 114,-141 461,-549 493,-580 8,-8 58,-62 110,-120 310,-344 984,-1005 1025,-1005 13,0 85,63 350,306 64,59 455,413 655,594 85,77 157,142 160,145 3,3 129,118 280,255 151,137 295,269 320,292 l 45,43 -225,218 c -371,359 -727,719 -965,977 -72,77 -155,167 -186,200 -197,210 -614,685 -839,955 -85,102 -157,187 -160,190 -13,12 -185,225 -271,335 -51,66 -122,156 -158,200 -35,44 -145,188 -243,320 -99,132 -185,247 -191,255 -11,13 -98,136 -249,350 -113,159 -279,406 -284,422 -5,18 16,46 167,213 29,32 245,275 413,465 74,84 191,215 196,220 3,3 61,68 129,145 68,77 140,158 160,180 153,171 202,225 232,260 19,21 55,62 80,90 25,27 61,68 80,89 19,22 57,65 84,96 28,30 84,93 125,140 41,46 98,109 125,140 28,31 79,89 115,130 59,68 158,178 170,190 3,3 75,84 160,180 85,96 157,177 160,180 3,3 39,43 80,90 41,47 83,94 93,105 123,134 843,948 845,955 2,7 -518,10 -1441,10 -1192,0 -1448,-2 -1459,-13 -7,-8 -33,-38 -58,-67 -25,-30 -59,-70 -76,-90 -37,-42 -47,-55 -201,-235 -465,-545 -470,-552 -584,-685 -35,-41 -138,-163 -229,-270 -159,-189 -265,-313 -319,-375 -14,-16 -100,-118 -191,-225 -90,-107 -167,-197 -170,-200 -3,-3 -78,-90 -167,-195 -88,-104 -174,-206 -191,-225 -16,-19 -74,-87 -127,-150 -54,-63 -109,-129 -124,-145 -14,-17 -51,-59 -81,-95 -30,-36 -59,-70 -65,-76 -5,-6 -109,-128 -230,-271 l -220,-260 -5,3910 c -3,2595 -8,3911 -15,3912 -5,1 -125,-8 -265,-21 z"
       id="path592"
       style="fill:#ffffff;fill-opacity:1" />
    <path
       d="m 51630,105078 c 0,-2 0,-2941 0,-6533 v -6530 h 1282 1283 l 2,4435 c 2,2439 3,4439 3,4444 0,8 133,-197 202,-310 10,-17 90,-146 178,-285 153,-243 184,-294 352,-564 117,-188 2047,-3273 2087,-3336 20,-32 106,-170 191,-308 l 155,-250 670,-1 h 670 l 533,853 c 868,1386 1570,2508 1611,2572 21,33 113,182 206,330 92,149 182,293 200,320 18,28 100,158 182,290 169,271 391,626 436,698 16,26 31,46 33,44 2,-2 5,-2013 7,-4468 l 2,-4464 h 1348 1347 v 6530 6530 l -1354,3 -1355,2 -34,-52 c -19,-29 -322,-514 -674,-1078 -352,-564 -1170,-1873 -1818,-2910 -648,-1037 -1188,-1902 -1199,-1922 -12,-21 -25,-37 -30,-35 -4,1 -33,44 -65,94 -132,214 -258,417 -283,456 -15,23 -31,49 -35,57 -6,12 -115,188 -143,230 -6,8 -96,152 -200,320 -104,168 -194,312 -200,320 -11,16 -273,435 -354,567 -63,101 -201,323 -287,460 -35,56 -86,138 -114,182 -87,140 -226,362 -289,463 -34,54 -72,116 -86,138 -207,333 -262,421 -319,509 -36,57 -75,119 -86,137 -82,135 -165,269 -200,324 -52,81 -255,405 -315,503 -25,41 -63,103 -86,138 -22,35 -81,128 -130,207 -49,78 -100,160 -114,182 -14,21 -45,72 -70,112 -24,40 -63,102 -85,138 -23,36 -72,115 -110,175 -63,102 -106,170 -159,252 l -21,33 h -1382 c -761,0 -1383,-1 -1383,-2 z"
       id="path594"
       style="fill:#ffffff;fill-opacity:1" />
    <path
       d="m 70485,101845 c -809,-71 -1473,-303 -2076,-726 -863,-605 -1430,-1549 -1673,-2784 -211,-1074 -165,-2330 120,-3267 98,-322 177,-521 330,-823 268,-533 588,-946 1014,-1315 644,-557 1436,-904 2380,-1044 452,-67 1059,-73 1545,-16 325,38 473,61 780,120 559,107 1039,269 1535,519 136,68 393,210 440,241 14,10 45,29 70,43 84,47 83,47 64,92 -9,22 -27,65 -41,95 -14,30 -43,96 -65,145 -22,50 -66,149 -98,220 -32,72 -75,168 -95,215 -20,47 -54,123 -75,170 -59,131 -247,555 -313,705 -19,44 -47,108 -62,142 l -27,62 -92,-50 c -122,-68 -517,-262 -586,-289 -30,-12 -68,-28 -85,-35 -187,-85 -520,-195 -785,-259 -264,-64 -472,-95 -760,-116 -540,-37 -1059,50 -1450,246 -649,324 -1034,856 -1254,1731 -14,56 -26,109 -26,117 0,15 275,16 2924,16 h 2924 l 20,93 c 81,367 127,877 126,1407 0,703 -104,1272 -340,1868 -52,131 -197,431 -273,565 -281,493 -710,950 -1176,1252 -558,361 -1147,563 -1885,646 -244,27 -798,35 -1035,14 z m 765,-2036 c 355,-42 659,-183 880,-408 287,-293 481,-745 554,-1292 18,-131 39,-389 34,-395 -6,-5 -3590,-6 -3595,0 -13,13 65,456 108,616 126,467 335,861 583,1098 248,238 579,367 1016,396 81,5 322,-3 420,-15 z"
       id="path596"
       style="fill:#ffffff;fill-opacity:1" />
    <path
       d="m 80380,101846 c -231,-23 -522,-72 -650,-110 -562,-168 -877,-326 -1325,-665 -212,-160 -459,-398 -660,-635 -61,-73 -209,-268 -238,-316 -11,-19 -24,-37 -27,-40 -11,-9 -103,-154 -173,-270 -37,-63 -113,-205 -167,-315 -456,-919 -666,-2026 -600,-3160 72,-1234 503,-2425 1164,-3214 85,-102 356,-376 446,-452 166,-140 354,-272 550,-387 509,-298 1158,-446 1807,-412 416,22 729,80 1118,209 237,78 672,275 883,400 29,17 55,31 57,31 14,0 389,241 471,302 28,21 56,38 62,38 8,0 10,-99 7,-372 -5,-457 -25,-713 -76,-993 -70,-380 -200,-717 -378,-985 -328,-493 -821,-776 -1526,-876 -175,-24 -659,-30 -875,-10 -662,62 -1257,240 -1920,573 -134,67 -248,119 -252,115 -6,-6 -62,-141 -358,-867 -43,-104 -124,-302 -180,-440 -56,-137 -115,-281 -130,-320 -16,-38 -37,-93 -49,-122 l -20,-51 107,-63 c 156,-92 544,-286 713,-357 712,-301 1420,-467 2224,-524 234,-16 781,-16 1010,0 390,28 782,91 1115,178 211,55 507,155 640,216 36,17 81,36 100,43 38,13 260,125 350,175 158,89 285,171 435,284 240,178 365,289 540,477 120,129 143,156 238,284 54,72 101,135 105,140 48,62 201,326 267,460 253,510 419,1114 485,1757 41,400 40,314 40,5380 v 4839 l -32,-5 c -18,-3 -123,-15 -233,-26 -110,-11 -245,-24 -300,-30 -55,-6 -210,-22 -345,-36 -135,-13 -308,-31 -385,-40 -77,-8 -252,-26 -390,-40 -137,-14 -297,-31 -355,-37 l -105,-12 -82,-345 c -45,-190 -82,-347 -82,-349 -1,-2 -25,17 -53,41 -280,237 -527,402 -825,551 -392,197 -788,313 -1272,373 -175,21 -692,27 -871,10 z m 1371,-2060 c 326,-39 667,-126 1009,-256 132,-51 328,-135 339,-145 8,-9 11,-4949 2,-4964 -16,-25 -458,-200 -731,-289 -435,-141 -717,-197 -1060,-209 -415,-14 -764,67 -1067,249 -554,332 -895,912 -1027,1748 -73,455 -79,1153 -16,1585 22,154 31,205 44,275 133,668 439,1264 811,1580 107,91 159,127 287,200 237,135 507,211 868,244 86,8 416,-3 541,-18 z"
       id="path598"
       style="fill:#ffffff;fill-opacity:1" />
    <path
       d="m 91015,101853 c -704,-42 -1296,-149 -1910,-345 -427,-136 -860,-328 -1202,-533 -88,-53 -95,-64 -69,-114 8,-15 62,-144 120,-287 58,-142 138,-340 179,-439 40,-99 149,-367 242,-595 92,-228 171,-419 175,-423 4,-4 79,28 166,71 134,67 272,132 420,198 138,61 326,134 529,204 787,273 1608,291 2219,49 225,-89 413,-214 587,-390 127,-129 217,-254 297,-415 130,-260 185,-509 199,-901 l 6,-183 h -27 c -14,0 -68,7 -119,15 -832,132 -1833,160 -2522,69 -1243,-163 -2118,-694 -2566,-1558 -168,-324 -266,-679 -300,-1082 -15,-189 -7,-640 15,-799 119,-846 490,-1512 1086,-1951 167,-123 431,-264 631,-338 315,-116 618,-172 995,-183 978,-29 1977,331 2840,1023 85,68 158,122 163,120 4,-3 8,-21 9,-42 2,-32 34,-256 72,-509 24,-154 81,-429 100,-480 l 10,-25 h 1200 c 1140,0 1201,1 1196,18 -28,92 -97,495 -125,727 -78,645 -82,807 -91,3275 -7,2258 -6,2215 -55,2580 -98,728 -334,1345 -698,1825 -50,66 -96,125 -101,132 -263,296 -493,492 -808,684 -570,350 -1266,548 -2098,599 -148,9 -638,11 -765,3 z m 1410,-5533 c 248,-15 515,-45 548,-62 16,-8 17,-61 17,-887 0,-483 -3,-893 -6,-910 -5,-26 -22,-41 -90,-86 -187,-121 -456,-264 -694,-368 -686,-299 -1384,-314 -1820,-39 -235,148 -378,356 -440,644 -72,331 -33,696 102,950 232,435 712,681 1473,752 170,16 677,19 910,6 z"
       id="path600"
       style="fill:#ffffff;fill-opacity:1" />
    <path
       d="m 115030,101854 c -1074,-69 -2007,-303 -2785,-699 -195,-99 -415,-227 -415,-241 0,-11 44,-120 216,-541 30,-73 78,-193 108,-265 30,-73 116,-284 191,-468 76,-184 153,-375 172,-425 20,-49 39,-94 43,-98 4,-5 85,31 181,79 192,97 297,144 539,244 470,194 794,286 1210,342 187,25 621,30 785,10 303,-39 547,-108 766,-218 177,-88 401,-266 535,-424 195,-230 333,-562 379,-909 16,-122 32,-459 22,-484 -4,-12 -14,-13 -49,-7 -216,40 -626,87 -1018,117 -280,21 -1043,24 -1250,5 -529,-50 -872,-116 -1253,-243 -524,-175 -982,-468 -1301,-834 -33,-38 -64,-72 -67,-75 -3,-3 -33,-42 -67,-87 -206,-272 -365,-613 -447,-958 -111,-467 -118,-1032 -19,-1518 102,-506 312,-956 607,-1307 97,-115 308,-311 437,-406 150,-110 428,-262 600,-327 787,-300 1790,-254 2690,124 131,55 438,208 552,275 130,75 450,289 514,343 18,14 47,37 65,51 28,21 118,95 182,148 9,9 20,13 22,10 3,-3 22,-115 41,-249 19,-134 39,-272 44,-306 14,-90 56,-303 81,-410 l 22,-93 h 1205 1204 l -7,28 c -61,241 -127,675 -160,1052 -43,499 -48,741 -55,2935 -8,2176 -8,2205 -50,2540 -114,903 -420,1604 -935,2144 -617,647 -1453,1014 -2565,1126 -146,15 -828,28 -970,19 z m 1605,-5548 c 215,-21 339,-37 348,-45 5,-5 11,-1420 7,-1817 0,-7 -24,-27 -52,-45 -29,-18 -55,-36 -58,-40 -10,-13 -270,-159 -395,-222 -298,-150 -511,-233 -745,-291 -517,-128 -1001,-89 -1322,106 -225,136 -361,304 -437,538 -104,322 -84,744 49,1023 84,178 160,271 353,434 72,61 233,148 372,203 221,86 476,137 870,174 103,10 870,-4 1010,-18 z"
       id="path602"
       style="fill:#ffffff;fill-opacity:1" />
    <path
       d="m 126300,101845 c -357,-45 -689,-163 -970,-343 -339,-218 -790,-647 -1134,-1079 -64,-81 -82,-99 -88,-85 -4,9 -23,112 -43,227 -20,116 -51,296 -70,400 -18,105 -50,285 -70,400 -49,281 -74,417 -77,421 -2,1 -37,-1 -78,-6 -41,-5 -165,-18 -275,-30 -110,-11 -261,-27 -335,-35 -74,-8 -200,-21 -280,-29 -80,-9 -248,-27 -375,-40 -126,-14 -346,-37 -487,-52 l -258,-28 v -4778 -4778 h 1305 1305 v 3438 3439 l 98,70 c 218,158 549,344 758,427 357,141 790,191 1291,151 209,-17 366,-46 553,-101 69,-20 134,-37 145,-38 20,-1 37,69 210,899 14,66 36,172 49,235 14,63 61,288 106,500 44,212 92,436 106,498 14,63 23,119 22,124 -10,28 -446,140 -703,179 -168,27 -550,34 -705,14 z"
       id="path604"
       style="fill:#ffffff;fill-opacity:1" />
    <path
       d="m 132030,101854 c -1157,-74 -2114,-328 -2960,-786 -117,-63 -250,-144 -250,-152 0,-8 48,-126 307,-761 162,-395 304,-744 364,-894 32,-79 60,-145 63,-148 2,-2 71,29 153,70 457,229 939,418 1291,506 338,85 570,114 907,115 267,1 389,-9 595,-50 322,-63 626,-202 851,-390 411,-342 619,-836 619,-1470 0,-170 27,-155 -210,-120 -827,122 -1676,147 -2360,71 -454,-51 -888,-157 -1235,-303 -101,-42 -338,-159 -380,-187 -19,-14 -50,-32 -68,-41 -174,-90 -530,-400 -697,-609 -261,-325 -440,-713 -524,-1135 -43,-213 -58,-356 -63,-602 -8,-359 21,-643 98,-953 233,-940 813,-1604 1678,-1921 436,-160 993,-211 1551,-143 628,77 1279,327 1870,718 102,68 283,196 302,213 7,8 33,29 58,47 25,19 75,61 113,94 43,38 68,54 71,45 2,-7 14,-89 25,-183 39,-305 104,-672 149,-840 l 8,-30 1202,-3 c 962,-2 1202,0 1202,11 0,6 -4,27 -9,45 -16,55 -79,400 -100,547 -42,290 -65,560 -81,950 -6,138 -13,282 -16,320 -3,39 -9,1026 -13,2195 -9,2315 -7,2226 -67,2620 -71,463 -183,834 -363,1205 -241,497 -565,879 -1026,1211 -552,398 -1220,628 -2090,719 -141,15 -822,28 -965,19 z m 1405,-5534 c 145,-10 369,-31 500,-48 l 50,-7 v -915 -914 l -61,-43 c -233,-163 -735,-409 -1010,-496 -137,-43 -346,-91 -474,-108 -125,-17 -452,-17 -555,0 -199,33 -376,98 -530,196 -90,57 -234,207 -289,300 -118,202 -163,417 -153,729 4,149 9,186 36,291 56,210 141,364 288,516 282,293 717,452 1373,502 108,8 680,6 825,-3 z"
       id="path606"
       style="fill:#ffffff;fill-opacity:1" />
    <path
       d="m 142660,101844 c -259,-19 -569,-62 -785,-109 -395,-86 -761,-213 -1110,-388 -192,-95 -232,-118 -420,-236 -572,-360 -1054,-865 -1395,-1461 -60,-104 -228,-455 -275,-575 -311,-782 -442,-1670 -389,-2640 72,-1340 537,-2477 1344,-3285 195,-195 419,-378 649,-530 547,-361 1200,-611 1871,-715 638,-99 1333,-101 1943,-4 864,136 1628,470 2234,977 342,285 660,655 907,1055 194,314 407,797 497,1127 124,451 179,747 221,1185 21,223 18,1012 -5,1235 -37,357 -97,702 -166,958 -10,37 -30,110 -45,163 -98,360 -326,884 -511,1174 -241,376 -403,579 -676,840 -270,260 -487,421 -824,614 -641,366 -1340,564 -2190,621 -203,13 -661,10 -875,-6 z m 873,-2064 c 137,-21 331,-66 417,-97 86,-31 288,-131 356,-175 141,-91 299,-233 398,-358 267,-334 476,-843 570,-1391 98,-568 98,-1271 0,-1839 -90,-528 -279,-1002 -531,-1339 -221,-295 -555,-514 -933,-615 -378,-100 -813,-111 -1221,-31 -568,113 -1010,445 -1269,955 -23,47 -46,90 -50,95 -4,6 -25,51 -47,100 -215,481 -323,1074 -323,1770 0,959 228,1758 655,2295 83,105 247,253 368,333 271,180 576,280 967,317 150,14 484,4 643,-20 z"
       id="path608"
       style="fill:#ffffff;fill-opacity:1" />
    <path
       d="m 163435,101850 c -403,-33 -795,-108 -1100,-212 -658,-222 -1234,-597 -1669,-1088 -432,-488 -745,-1089 -937,-1800 -104,-386 -172,-795 -211,-1265 -16,-200 -16,-871 0,-1085 45,-579 136,-1056 291,-1510 161,-477 411,-957 690,-1325 147,-195 384,-450 556,-600 50,-43 104,-90 120,-104 17,-15 46,-37 65,-51 19,-13 37,-27 40,-30 3,-3 30,-24 60,-46 365,-272 787,-489 1247,-640 819,-269 1688,-332 2683,-193 312,43 734,125 978,190 164,43 473,147 652,219 140,56 520,237 645,307 28,16 77,43 110,62 33,18 76,44 95,56 19,12 68,41 107,64 l 72,43 -13,31 c -8,18 -59,133 -114,257 -90,204 -300,678 -349,790 -73,163 -315,706 -319,712 -2,4 -37,-12 -77,-34 -109,-62 -468,-240 -591,-293 -528,-227 -981,-349 -1506,-406 -173,-19 -607,-16 -765,4 -355,47 -577,112 -859,253 -400,201 -710,514 -936,947 -111,212 -218,506 -277,757 -13,58 -26,113 -29,123 -5,16 139,17 2924,17 h 2929 l 26,133 c 50,251 84,544 107,912 13,208 13,682 0,860 -47,636 -198,1212 -455,1741 -57,116 -124,246 -150,290 -54,90 -230,358 -248,377 -7,7 -34,41 -62,77 -361,474 -875,863 -1475,1120 -368,158 -853,280 -1265,320 -60,6 -128,13 -150,15 -79,10 -732,13 -840,5 z m 744,-2046 c 555,-81 920,-354 1168,-874 93,-193 155,-389 203,-640 32,-166 60,-408 60,-515 v -65 l -1795,-2 -1795,-3 v 27 c 0,33 34,266 55,371 93,478 290,928 534,1220 288,344 740,517 1310,501 85,-2 202,-11 260,-20 z"
       id="path610"
       style="fill:#ffffff;fill-opacity:1" />
  </g>
</svg>
