<?xml version="1.0" encoding="UTF-8" standalone="no"?>
<svg
   width="565.90576"
   height="158.23824"
   xml:space="preserve"
   overflow="hidden"
   version="1.1"
   id="svg25"
   sodipodi:docname="MicrofoneMegaKaraoke.svg"
   inkscape:version="1.2.2 (732a01da63, 2022-12-09)"
   xmlns:inkscape="http://www.inkscape.org/namespaces/inkscape"
   xmlns:sodipodi="http://sodipodi.sourceforge.net/DTD/sodipodi-0.dtd"
   xmlns="http://www.w3.org/2000/svg"
   xmlns:svg="http://www.w3.org/2000/svg"><sodipodi:namedview
     id="namedview27"
     pagecolor="#505050"
     bordercolor="#ffffff"
     borderopacity="1"
     inkscape:showpageshadow="0"
     inkscape:pageopacity="0"
     inkscape:pagecheckerboard="1"
     inkscape:deskcolor="#505050"
     showgrid="false"
     inkscape:zoom="1.4142136"
     inkscape:cx="317.13739"
     inkscape:cy="51.972348"
     inkscape:window-width="1920"
     inkscape:window-height="991"
     inkscape:window-x="-9"
     inkscape:window-y="-9"
     inkscape:window-maximized="1"
     inkscape:current-layer="svg25" /><defs
     id="defs11"><clipPath
       id="clip0"><path
         d="m 1894.06,885.361 155.83,-27.477 98.46,558.386 -155.83,27.48 z"
         fill-rule="evenodd"
         clip-rule="evenodd"
         id="path2" /></clipPath><clipPath
       id="clip1"><path
         d="m 1894.06,885.361 155.83,-27.477 98.46,558.386 -155.83,27.48 z"
         fill-rule="evenodd"
         clip-rule="evenodd"
         id="path5" /></clipPath><clipPath
       id="clip2"><path
         d="m 1894.06,885.361 155.83,-27.477 98.46,558.386 -155.83,27.48 z"
         fill-rule="evenodd"
         clip-rule="evenodd"
         id="path8" /></clipPath></defs><g
     transform="rotate(-79.995497,513.43689,1650.8398)"
     id="g23"
     style="fill:#000000"><g
       clip-path="url(#clip0)"
       id="g21"
       style="fill:#000000"><g
         clip-path="url(#clip1)"
         id="g19"
         style="fill:#000000"><g
           clip-path="url(#clip2)"
           id="g17"
           style="fill:#000000"><path
             d="m 243.151,184.605 c 12.659,-13.977 20.57,-32.438 20.57,-52.744 0,-43.778 -35.338,-79.1167 -79.116,-79.1167 -43.778,0 -79.116,35.3387 -79.116,79.1167 0,20.306 7.911,38.767 20.57,52.744 z"
             fill="#000000"
             fill-opacity="0.1"
             transform="rotate(-9.9999875,5761.3283,-9752.971)"
             id="path13"
             style="fill:#ffffff;fill-opacity:1" /><path
             d="m 210.977,618.648 c 0,-29.009 0,-114.94 0,-143.949 h 26.372 L 263.721,210.977 H 105.489 l 26.372,263.722 h 26.372 c 0,58.282 0,85.667 0,143.949 z M 189.616,421.954 H 179.594 L 163.771,263.721 h 41.668 z"
             fill="#000000"
             fill-opacity="0.1"
             transform="rotate(-9.9999875,5761.3283,-9752.971)"
             id="path15"
             style="fill:#ffffff;fill-opacity:1" /></g></g></g></g></svg>
